<svg xmlns="http://www.w3.org/2000/svg" viewBox="0 0 512 512" width="512" height="512">
  <defs>
    <style>
      .cls-1 {
        fill: url(#Degradado_sin_nombre_103-2);
      }

      .cls-2 {
        fill: url(#Degradado_sin_nombre_103);
      }
    </style>
    <linearGradient id="Degradado_sin_nombre_103" data-name="Degradado sin nombre 103" x1="32.4" y1="121.17" x2="92.16" y2="121.17" gradientUnits="userSpaceOnUse">
      <stop offset="0" stop-color="#00119f"/>
      <stop offset="1" stop-color="#cc3fdf"/>
    </linearGradient>
    <linearGradient id="Degradado_sin_nombre_103-2" data-name="Degradado sin nombre 103" x1="92.16" y1="120.96" x2="209.52" y2="120.96" xlink:href="#Degradado_sin_nombre_103"/>
  </defs>
  <rect width="512" height="512" rx="112" fill="#ffffff" />
  <g transform="translate(40, 135)">
    <g transform="scale(1) translate(0, 0)">
       <path class="cls-2" d="M49.59,55.57l37.61,24.92c3.1,2.05,4.96,5.52,4.96,9.23v64.24c0,3.81-1.96,7.36-5.2,9.39l-37.61,23.56c-7.38,4.62-16.95-.68-16.95-9.39v-112.73c0-8.83,9.83-14.11,17.19-9.23Z"/>
<path class="cls-1" d="M149.76,115V50.25c0-3.78,1.93-7.3,5.11-9.33l37.61-24.02c7.37-4.71,17.04.59,17.04,9.33v125.79c0,3.7-1.85,7.15-4.92,9.21l-95.21,63.67c-7.36,4.92-17.23-.35-17.23-9.21v-49.74c0-3.66,1.81-7.09,4.84-9.15l47.92-32.65c3.03-2.06,4.84-5.49,4.84-9.15Z"/>
    </g>
    <g transform="translate(245, 130)">
       <text x="0" y="0" font-family="-apple-system, BlinkMacSystemFont, 'Segoe UI', Roboto, Helvetica, Arial, sans-serif" font-size="44" font-weight="bold" fill="#0f172a">UltraMoney</text>
       <text x="0" y="30" font-family="-apple-system, BlinkMacSystemFont, 'Segoe UI', Roboto, Helvetica, Arial, sans-serif" font-size="18" font-weight="normal" fill="#64748b">Préstamos</text>
    </g>
  </g>
</svg>